<svg xmlns="http://www.w3.org/2000/svg" version="1.1" xmlns:xlink="http://www.w3.org/1999/xlink" xmlns:svgjs="http://svgjs.com/svgjs" width="512" height="512" x="0" y="0" viewBox="0 0 24 24" style="enable-background:new 0 0 512 512" xml:space="preserve" class=""><g transform="matrix(1.0899999999999976,0,0,1.0899999999999976,-1.0799999999999734,-1.080065488815288)"><path d="M23 11v7.2a2.91 2.91 0 0 1-3 2.8H4a2.91 2.91 0 0 1-3-2.8V11a1 1 0 0 1 2 0v7.2a.93.93 0 0 0 1 .8h16a.93.93 0 0 0 1-.8V11a1 1 0 0 1 2 0zM9.59 7.83 11 6.41V15a1 1 0 0 0 2 0V6.41l1.41 1.42a1 1 0 0 0 1.42 0 1 1 0 0 0 .29-.71 1 1 0 0 0-.29-.71l-3.12-3.12a1 1 0 0 0-.64-.29h-.19a1 1 0 0 0-.54.24h-.05L8.17 6.41a1 1 0 1 0 1.42 1.42z" data-name="Layer 24" fill="#ffffff" data-original="#000000" class="" opacity="1"></path></g></svg>