<svg xmlns="http://www.w3.org/2000/svg" version="1.1" xmlns:xlink="http://www.w3.org/1999/xlink" xmlns:svgjs="http://svgjs.com/svgjs" width="512" height="512" x="0" y="0" viewBox="0 0 64 64" style="enable-background:new 0 0 512 512" xml:space="preserve" class=""><g transform="matrix(1.139999999999999,0,0,1.139999999999999,-4.479999666213949,-4.4799991989134895)"><path d="M30.071 27.583v-2.718a6.245 6.245 0 0 0-4.277-5.936l-2.498-.84a9.269 9.269 0 0 1-12.49 0l-2.51.84a6.245 6.245 0 0 0-4.276 5.936v2.718a2.508 2.508 0 0 0 2.498 2.508h21.055a2.508 2.508 0 0 0 2.498-2.508z" fill="#ffffff" data-original="#000000" opacity="1" class=""></path><path d="M13.063 17.33c4.549 3.202 11.397-.395 11.242-6.065A7.271 7.271 0 0 0 17.041 4c-7.176-.011-9.93 9.488-3.978 13.33zM55.703 48.838l-2.508-.83a9.285 9.285 0 0 1-12.491-.01l-2.498.83a6.267 6.267 0 0 0-4.277 5.946v2.718A2.508 2.508 0 0 0 36.427 60h21.055a2.508 2.508 0 0 0 2.498-2.508v-2.718a6.245 6.245 0 0 0-4.277-5.936z" fill="#ffffff" data-original="#000000" opacity="1" class=""></path><path d="M46.96 33.909c-7.198-.01-9.937 9.491-3.978 13.34 4.554 3.185 11.38-.404 11.232-6.076a7.27 7.27 0 0 0-7.255-7.264zM42.592 18.84v-1.83a13.376 13.376 0 0 1 12.022 10.423c-.034 1.138-1.552 2.793-.15 3.518 1.988.815 2.45-5.083 2.458-6.386a15.358 15.358 0 0 0-14.33-15.299V7.368a1.014 1.014 0 0 0-1.558-.83l-8.594 5.736a.997.997 0 0 0 0 1.659l8.594 5.736a1.01 1.01 0 0 0 1.558-.83zM22.966 44.331a1.01 1.01 0 0 0-1.558.83v1.828A13.375 13.375 0 0 1 9.386 36.567c.037-1.129 1.548-2.802.15-3.518a.992.992 0 0 0-1.299.54c-4.11 9.417 2.985 20.7 13.17 21.145v1.898a1.012 1.012 0 0 0 1.56.83l8.593-5.736a.997.997 0 0 0 0-1.659z" fill="#ffffff" data-original="#000000" opacity="1" class=""></path></g></svg>