<svg xmlns="http://www.w3.org/2000/svg" version="1.1" xmlns:xlink="http://www.w3.org/1999/xlink" xmlns:svgjs="http://svgjs.com/svgjs" width="512" height="512" x="0" y="0" viewBox="0 0 30 30" style="enable-background:new 0 0 512 512" xml:space="preserve" class=""><g transform="matrix(1.0699999999999987,0,0,1.0699999999999987,-1.049999991655337,-1.049999999999983)"><path d="M15 18c1.654 0 3-1.346 3-3s-1.346-3-3-3-3 1.346-3 3 1.346 3 3 3zm0-5c1.103 0 2 .897 2 2s-.897 2-2 2-2-.897-2-2 .897-2 2-2z" fill="#ffffff" data-original="#000000" class="" opacity="1"></path><path d="m7.354 17.698 1.492 2.604c.126.22.397.312.629.212l1.638-.695c.509.415 1.072.74 1.68.971l.219 1.772c.03.25.243.438.496.438h2.986a.5.5 0 0 0 .496-.439l.217-1.772a6.02 6.02 0 0 0 1.68-.971l1.637.695a.502.502 0 0 0 .629-.212l1.492-2.604a.5.5 0 0 0-.132-.647l-1.418-1.075a6.18 6.18 0 0 0 0-1.953l1.418-1.074a.5.5 0 0 0 .132-.647l-1.492-2.604a.501.501 0 0 0-.629-.212l-1.637.695a6.02 6.02 0 0 0-1.68-.971l-.217-1.77A.499.499 0 0 0 16.494 7h-2.986a.5.5 0 0 0-.496.439l-.219 1.772c-.607.23-1.17.556-1.68.971l-1.637-.695a.498.498 0 0 0-.629.212l-1.492 2.604a.5.5 0 0 0 .132.647l1.419 1.074a6.17 6.17 0 0 0-.001 1.952l-1.419 1.075a.5.5 0 0 0-.132.647zm2.402-1.112a.498.498 0 0 0 .187-.505 5.131 5.131 0 0 1-.001-2.163.5.5 0 0 0-.187-.506l-1.315-.995 1.052-1.836 1.515.643c.18.075.387.041.53-.089a5.075 5.075 0 0 1 1.865-1.078.499.499 0 0 0 .344-.415L13.95 8h2.102l.201 1.642a.5.5 0 0 0 .344.416c.693.222 1.32.584 1.864 1.077a.502.502 0 0 0 .531.09l1.515-.643 1.053 1.837-1.314.995a.5.5 0 0 0-.187.504c.076.349.114.713.114 1.083s-.038.734-.114 1.082a.5.5 0 0 0 .187.504l1.314.996-1.053 1.837-1.515-.643a.502.502 0 0 0-.531.09 5.054 5.054 0 0 1-1.864 1.077.5.5 0 0 0-.344.416L16.052 22H13.95l-.203-1.642a.499.499 0 0 0-.344-.415 5.075 5.075 0 0 1-1.865-1.078.502.502 0 0 0-.53-.089l-1.515.643-1.053-1.837z" fill="#ffffff" data-original="#000000" class="" opacity="1"></path><path d="M24.087 21.198A11.003 11.003 0 0 1 15 26C8.935 26 4 21.065 4 15v-.293l1.146 1.146c.468.468 1.175-.239.707-.707l-1.999-1.999a.5.5 0 0 0-.708 0l-1.999 1.999c-.468.468.239 1.175.707.707L3 14.707V15c0 6.617 5.383 12 12 12 3.965 0 7.671-1.958 9.913-5.237.374-.547-.454-1.11-.826-.565zM28.146 14.146 27 15.293V15c0-6.617-5.383-12-12-12-3.969 0-7.675 1.96-9.914 5.243-.374.547.456 1.109.826.563A10.995 10.995 0 0 1 15 4c6.065 0 11 4.935 11 11v.293l-1.146-1.146c-.468-.468-1.175.239-.707.707l1.999 1.999a.5.5 0 0 0 .708 0l1.999-1.999c.468-.468-.239-1.175-.707-.708z" fill="#ffffff" data-original="#000000" class="" opacity="1"></path></g></svg>