<svg xmlns="http://www.w3.org/2000/svg" version="1.1" xmlns:xlink="http://www.w3.org/1999/xlink" xmlns:svgjs="http://svgjs.com/svgjs" width="512" height="512" x="0" y="0" viewBox="0 0 512 512" style="enable-background:new 0 0 512 512" xml:space="preserve" class=""><g><path d="M463.3 136 334.7 7.3C330 2.6 323.6 0 317 0H66.3c-13.8 0-25 11.2-25 25v462c0 13.8 11.2 25 25 25h379.3c13.8 0 25-11.2 25-25V153.7c.1-6.6-2.6-13-7.3-17.7zM316.2 59.6l100.3 100.3H316.2zM420.6 462H91.3V50h174.8v134.9c0 13.8 11.2 25 25 25h129.5z" fill="#ffffff" data-original="#000000" opacity="1"></path><path d="M281 269.1c0-13.8-11.2-25-25-25s-25 11.2-25 25v43.6h-43.5c-13.8 0-25 11.2-25 25s11.2 25 25 25H231v43.5c0 13.8 11.2 25 25 25s25-11.2 25-25v-43.5h43.6c13.8 0 25-11.2 25-25s-11.2-25-25-25H281z" fill="#ffffff" data-original="#000000" opacity="1"></path></g></svg>