<svg width="60" height="60" viewBox="0 0 60 60" fill="none"
								xmlns="http://www.w3.org/2000/svg">
								<path
									d="M45 5V10.64C44.6899 10.6383 44.3972 10.7828 44.21 11.03L36.24 21.39C36.0078 21.6916 35.967 22.0988 36.1347 22.4405C36.3023 22.7822 36.6494 22.9991 37.03 23H40C40.5523 23 41 23.4477 41 24V32.7C38.5859 33.5931 36.5711 35.3206 35.32 37.57C34.0051 36.6459 32.4371 36.15 30.83 36.15C26.7315 36.0702 23.3413 39.3218 23.25 43.42C23.2526 44.6595 23.5801 45.8766 24.2 46.95C21.7124 47.8097 20.032 50.1382 20 52.77C19.9976 53.5342 20.1436 54.2915 20.43 55H5C2.79086 55 1 53.2091 1 51V14H10C12.2091 14 14 12.2091 14 10V1H41C43.2091 1 45 2.79086 45 5Z"
									fill="#C8FFD5" />
								<path
									d="M29.289 36.3C28.8086 36.2029 28.3201 36.152 27.83 36.148C23.7315 36.0682 20.3413 39.3198 20.25 43.418C20.2526 44.6575 20.5801 45.8746 21.2 46.948C18.7117 47.8079 17.0312 50.1375 17 52.77C16.9976 53.5342 17.1436 54.2915 17.43 55H20.43C20.1436 54.2915 19.9976 53.5342 20 52.77C20.032 50.1382 21.7124 47.8097 24.2 46.95C23.5801 45.8766 23.2526 44.6595 23.25 43.42C23.3079 39.9104 25.8359 36.9299 29.289 36.3Z"
									fill="#86FFA3" />
								<path
									d="M41 1H38C40.2091 1 42 2.79086 42 5V10.64C41.6899 10.6383 41.3972 10.7828 41.21 11.03L33.24 21.39C33.0078 21.6916 32.967 22.0988 33.1347 22.4405C33.3023 22.7822 33.6494 22.9991 34.03 23H37C37.5523 23 38 23.4477 38 24V32.7C36.0066 33.4449 34.276 34.759 33.023 36.479C33.8437 36.7158 34.6204 37.0843 35.323 37.57C36.5734 35.3211 38.587 33.5937 41 32.7V24C41 23.4477 40.5523 23 40 23H37.03C36.6494 22.9991 36.3023 22.7822 36.1347 22.4405C35.967 22.0988 36.0078 21.6916 36.24 21.39L44.21 11.03C44.3972 10.7828 44.6899 10.6383 45 10.64V5C45 2.79086 43.2091 1 41 1Z"
									fill="#86FFA3" />
								<path d="M14 1V10C14 12.2091 12.2091 14 10 14H1L14 1Z" fill="#E8FCEC" />
								<path
									d="M59 52.77C58.9235 56.2844 56.0145 59.0726 52.5 59H26.5C23.8505 59.0285 21.4489 57.4459 20.43 55C20.1436 54.2915 19.9976 53.5342 20 52.77C20.032 50.1382 21.7124 47.8097 24.2 46.95C23.5801 45.8766 23.2526 44.6595 23.25 43.42C23.3413 39.3218 26.7315 36.0702 30.83 36.15C32.4371 36.15 34.0051 36.6459 35.32 37.57C36.5711 35.3206 38.5859 33.5931 41 32.7V45C41 45.5523 41.4477 46 42 46H48C48.5523 46 49 45.5523 49 45V32.77C53.0204 34.2698 55.7031 38.0892 55.75 42.38C55.7463 43.9513 55.3729 45.4997 54.66 46.9C57.2186 47.7196 58.9663 50.0836 59 52.77Z"
									fill="#E8FCEC" />
								<path
									d="M38 34.412V45C38 45.5523 38.4477 46 39 46H42C41.4477 46 41 45.5523 41 45V32.7C39.9161 33.1091 38.9036 33.6869 38 34.412Z"
									fill="#B3F8C4" />
								<path
									d="M54.66 46.9C55.3729 45.4997 55.7463 43.9513 55.75 42.38C55.7031 38.0892 53.0204 34.2698 49 32.77V34.538C51.3611 36.4587 52.7372 39.3364 52.75 42.38C52.7463 43.9513 52.3729 45.4997 51.66 46.9C54.2186 47.7196 55.9663 50.0836 56 52.77C55.9235 56.2844 53.0145 59.0726 49.5 59H52.5C56.0145 59.0726 58.9235 56.2844 59 52.77C58.9663 50.0836 57.2186 47.7196 54.66 46.9Z"
									fill="#B3F8C4" />
								<path
									d="M52.97 23H50C49.4477 23 49 23.4477 49 24V45C49 45.5523 48.5523 46 48 46H42C41.4477 46 41 45.5523 41 45V24C41 23.4477 40.5523 23 40 23H37.03C36.6494 22.9991 36.3023 22.7822 36.1347 22.4405C35.967 22.0988 36.0078 21.6916 36.24 21.39L44.21 11.03C44.3994 10.7859 44.691 10.6431 45 10.6431C45.309 10.6431 45.6006 10.7859 45.79 11.03L53.76 21.39C53.9922 21.6916 54.033 22.0988 53.8654 22.4405C53.6977 22.7822 53.3506 22.9991 52.97 23Z"
									fill="#E8FCEC" />
								<path
									d="M53.76 21.39L45.79 11.03C45.6006 10.7859 45.309 10.6431 45 10.6431C44.691 10.6431 44.3994 10.7859 44.21 11.03L43.5 11.953L50.76 21.39C50.9922 21.6916 51.033 22.0988 50.8653 22.4405C50.6977 22.7822 50.3506 22.9991 49.97 23H47C46.4477 23 46 23.4477 46 24V45C46 45.5523 45.5523 46 45 46H48C48.5523 46 49 45.5523 49 45V24C49 23.4477 49.4477 23 50 23H52.97C53.3506 22.9991 53.6977 22.7822 53.8653 22.4405C54.033 22.0988 53.9922 21.6916 53.76 21.39Z"
									fill="#B3F8C4" />
								<path
									d="M5 55H8C5.79086 55 4 53.2091 4 51V14L17 1H14L1 14V51C1 53.2091 2.79086 55 5 55Z"
									fill="white" />
								<path d="M0 43H2V51H0V43Z" fill="white" />
								<path
									d="M35 6C35.5523 6 36 5.55228 36 5C36 4.44772 35.5523 4 35 4H29C28.4477 4 28 4.44772 28 5C28 5.55228 28.4477 6 29 6H35Z"
									fill="#4AE16E" />
								<path
									d="M41 6C41.5523 6 42 5.55228 42 5C42 4.44772 41.5523 4 41 4H39C38.4477 4 38 4.44772 38 5C38 5.55228 38.4477 6 39 6H41Z"
									fill="#4AE16E" />
								<path
									d="M9 20H18C18.5523 20 19 19.5523 19 19C19 18.4477 18.5523 18 18 18H9C8.44772 18 8 18.4477 8 19C8 19.5523 8.44772 20 9 20Z"
									fill="#4AE16E" />
								<path
									d="M22 19C22 19.5523 22.4477 20 23 20H31C31.5523 20 32 19.5523 32 19C32 18.4477 31.5523 18 31 18H23C22.4477 18 22 18.4477 22 19Z"
									fill="#4AE16E" />
								<path
									d="M9 25H24C24.5523 25 25 24.5523 25 24C25 23.4477 24.5523 23 24 23H9C8.44772 23 8 23.4477 8 24C8 24.5523 8.44772 25 9 25Z"
									fill="#4AE16E" />
								<path
									d="M9 30H18C18.5523 30 19 29.5523 19 29C19 28.4477 18.5523 28 18 28H9C8.44772 28 8 28.4477 8 29C8 29.5523 8.44772 30 9 30Z"
									fill="#4AE16E" />
								<path
									d="M55.989 46.375C56.4923 45.1032 56.7505 43.7477 56.75 42.38C56.7226 37.9257 54.0785 33.9039 50 32.113V24H52.969C53.7309 24.0002 54.4267 23.5674 54.7635 22.8839C55.1002 22.2005 55.0194 21.385 54.555 20.781L46.585 10.421C46.4259 10.2209 46.2266 10.0564 46 9.938V5C45.9967 2.23995 43.7601 0.00330612 41 0H14C13.7348 5.664e-05 13.4805 0.105451 13.293 0.293L0.293 13.293C0.105451 13.4805 5.664e-05 13.7348 0 14V43C0 43.5523 0.447715 44 1 44C1.55228 44 2 43.5523 2 43V15H10C12.7601 14.9967 14.9967 12.7601 15 10V2H41C42.6569 2 44 3.34315 44 5V9.938C43.7734 10.0564 43.5741 10.2209 43.415 10.421L35.446 20.78C34.9811 21.3839 34.8998 22.1995 35.2364 22.8833C35.573 23.567 36.2689 24.0001 37.031 24H40V32.036C37.9711 32.9252 36.234 34.3684 34.988 36.2C33.7102 35.5114 32.2815 35.1506 30.83 35.15C26.1797 35.0714 22.3425 38.77 22.25 43.42C22.2514 44.4629 22.4552 45.4957 22.85 46.461C20.5075 47.6996 19.0302 50.1204 19 52.77C19.0009 53.1825 19.0384 53.5941 19.112 54H5C3.34315 54 2 52.6569 2 51C2 50.4477 1.55228 50 1 50C0.447715 50 0 50.4477 0 51C0.00330612 53.7601 2.23995 55.9967 5 56H19.812C21.1141 58.4827 23.6967 60.0273 26.5 60H52.5C56.5652 60.0686 59.9196 56.835 60 52.77C59.9772 50.0521 58.4259 47.5787 55.989 46.375ZM10 13H3.414L13 3.414V10C13 11.6569 11.6569 13 10 13ZM37.031 22L45 11.64L52.969 22H50C48.8954 22 48 22.8954 48 24V45H42V24C42 22.8954 41.1046 22 40 22H37.031ZM52.5 58H26.5C24.2608 58.0179 22.2311 56.6856 21.357 54.624C21.1189 54.035 20.9977 53.4053 21 52.77C21.0212 50.5553 22.4428 48.5971 24.542 47.891C24.8193 47.7902 25.038 47.572 25.1394 47.2949C25.2408 47.0178 25.2147 46.71 25.068 46.454C24.5328 45.5324 24.2506 44.4857 24.25 43.42C24.3417 39.8743 27.284 37.0706 30.83 37.15C32.2323 37.1503 33.6004 37.5837 34.747 38.391C34.9805 38.5517 35.2707 38.6072 35.547 38.544C35.8235 38.4793 36.0595 38.3 36.196 38.051C37.0804 36.4556 38.3995 35.1441 40 34.269V45C40 46.1046 40.8954 47 42 47H48C49.1046 47 50 46.1046 50 45V34.354C52.9149 35.977 54.7299 39.0438 54.75 42.38C54.7473 43.7955 54.4105 45.1903 53.767 46.451C53.6358 46.7103 53.6238 47.0138 53.7342 47.2826C53.8446 47.5513 54.0664 47.7588 54.342 47.851C56.4918 48.5341 57.9645 50.5146 58 52.77C57.9198 55.7305 55.4608 58.0688 52.5 58Z"
									fill="#4AE16E" />
								<path
									d="M1 48C1.55228 48 2 47.5523 2 47C2 46.4477 1.55228 46 1 46C0.447715 46 0 46.4477 0 47C0 47.5523 0.447715 48 1 48Z"
									fill="#4AE16E" />
							</svg>